<svg id="Capa_1" data-name="Capa 1" xmlns="http://www.w3.org/2000/svg" viewBox="0 0 1000 300"><defs><style>.cls-1{fill:#fff;}</style></defs><title>Addi Logo</title><path class="cls-1" d="M141.52,45.39l-19.07-9.5L16.5,245.25l19.18,9.68L141.52,45.67,247.36,254.93l19.18-9.68-106-209.36ZM411.45,35.6H338.39V57.24h73.06c49.83,0,90.61,39.54,90.61,88.12s-40.64,88.11-90.61,88.11H338.39v21.6h73.06c61.86,0,112.18-49.21,112.18-109.75S473.31,35.6,411.45,35.6ZM299.32,255h21.35V35.89H299.32ZM68,223.29l9.75,19.19,114.27-58-9.72-19.18Zm902,12.78c0-4.38-3.56-7.12-8.75-7.12h-9.75v22.42h3.31v-7.86h4.87l7.47,7.72h4.28l-7.83-8A7.3,7.3,0,0,0,970,236.07Zm-15.3,4.38V231.8h6.55c3.31,0,5.44,1.64,5.44,4.27s-2.24,4.38-5.59,4.38ZM840.15,255H861.5V35.89H840.15Zm119.64-38.15A23.78,23.78,0,1,0,983.5,240.7v0a23.36,23.36,0,0,0-22.88-23.81Zm0,44.24a20.54,20.54,0,1,1,20.4-20.68v.25a20.09,20.09,0,0,1-19.71,20.43ZM679.93,35.6h-73.1V57.24h73.1c49.82,0,90.57,39.54,90.57,88.12s-40.64,88.11-90.57,88.11h-73.1v21.6h73.1c61.85,0,112.17-49.21,112.17-109.75S741.78,35.6,679.93,35.6ZM567.79,255h21.36V35.89H567.79Z"/></svg>